<svg width="385" height="86" viewBox="0 0 385 86" fill="none" xmlns="http://www.w3.org/2000/svg">
<path d="M85.4258 65.9999H113.794V57.7919H94.6418V16.3919H85.4258V65.9999Z" fill="black"/>
<path d="M135.61 58.0799C130.714 58.0799 126.826 54.5519 126.826 49.0799C126.826 43.6799 130.714 40.2959 135.61 40.2959C140.506 40.2959 144.394 43.6799 144.394 49.0799C144.394 54.5519 140.506 58.0799 135.61 58.0799ZM135.61 66.6479C145.114 66.6479 153.106 59.6639 153.106 49.0799C153.106 38.4239 145.114 31.6559 135.61 31.6559C126.106 31.6559 118.114 38.4239 118.114 49.0799C118.114 59.6639 126.106 66.6479 135.61 66.6479Z" fill="black"/>
<path d="M158.823 49.0799C158.823 59.6639 167.319 66.7199 176.967 66.7199C182.727 66.7199 187.839 64.3439 191.007 60.0959L183.951 54.9119C182.295 57.1439 179.775 58.2959 176.967 58.2959C172.071 58.2959 167.535 54.5519 167.535 49.0799C167.535 43.6079 172.071 40.1519 176.967 40.1519C179.775 40.1519 182.295 41.2319 183.951 43.4639L190.935 38.2079C187.767 33.9599 182.655 31.6559 176.967 31.6559C167.319 31.6559 158.823 38.4239 158.823 49.0799Z" fill="black"/>
<path d="M223.385 65.9999H232.169V32.3759H223.385V36.5519C220.865 32.8799 216.041 31.6559 212.945 31.6559C204.089 31.6559 195.809 38.4239 195.809 49.1519C195.809 59.8799 204.089 66.6479 212.945 66.6479C216.185 66.6479 221.297 65.1359 223.385 61.6799V65.9999ZM204.881 49.1519C204.881 43.6799 209.273 40.0799 214.169 40.0799C218.777 40.0799 223.385 43.3919 223.385 49.1519C223.385 54.9119 218.993 58.2239 214.169 58.2239C209.273 58.2239 204.881 54.6239 204.881 49.1519Z" fill="black"/>
<path d="M242.124 65.9999H250.908V14.0879H242.124V65.9999Z" fill="black"/>
<path d="M262.051 65.9999H271.267V45.6959H287.971V37.4879H271.267V24.5999H292.363V16.3919H262.051V65.9999Z" fill="black"/>
<path d="M299.288 65.9999H308.072V14.0879H299.288V65.9999Z" fill="black"/>
<path d="M326.703 32.3759H317.991V65.9999H326.703V32.3759Z" fill="black"/>
<path d="M345.408 54.1199C345.408 45.1919 347.856 39.8639 353.832 39.8639C354.696 39.8639 356.856 39.8639 358.944 40.7999L360.456 32.8799C359.088 32.0879 357.288 31.6559 354.912 31.6559C351.096 31.6559 347.136 34.1759 345.408 40.2959V32.3759H336.624V65.9999H345.408V54.1199Z" fill="black"/>
<path d="M377.745 19.5599H369.033V32.3759H362.913V39.4319H369.033V65.9999H377.745V39.4319H384.873V32.3759H377.745V19.5599Z" fill="black"/>
<circle cx="322.234" cy="21" r="7" fill="#D01511"/>
<path d="M56.3119 12.8411C57.6279 12.5877 54.7406 13.1157 55.8542 12.3831C56.9678 11.6504 57.9226 10.707 58.664 9.60675C59.4055 8.50647 59.9191 7.2709 60.1755 5.9706C60.4319 4.67029 60.4261 3.33075 60.1584 2.02848C60.0102 1.33306 59.792 0.653493 59.507 1.19447e-07C60.8356 0.87522 61.9416 2.04307 62.737 3.41062C63.5324 4.77818 63.9954 6.30769 64.0889 7.87749C64.1825 9.44728 63.9041 11.014 63.2759 12.453C62.6478 13.8921 61.6872 15.1637 60.4705 16.1667C59.2539 17.1697 57.8148 17.8765 56.2678 18.2307C54.7208 18.5849 57.2463 17.5413 55.6971 17.1716C54.1478 16.8019 56.6698 17.2866 55.447 16.2714C54.2241 15.2562 53.2557 13.975 52.6187 12.5296C54.8755 14.0161 53.6645 13.356 56.3119 12.8411Z" fill="url(#paint0_linear_127_9739)"/>
<path d="M11.7127 12.8411C10.3966 12.5877 13.284 13.1157 12.1704 12.3831C11.0568 11.6504 10.102 10.707 9.36056 9.60675C8.6191 8.50647 8.10549 7.2709 7.8491 5.9706C7.5927 4.67029 7.59852 3.33075 7.86623 2.02848C8.01435 1.33306 8.23257 0.653493 8.51761 7.97604e-08C7.18903 0.87522 6.08302 2.04307 5.28758 3.41062C4.49214 4.77818 4.02923 6.30769 3.93566 7.87749C3.8421 9.44728 4.12048 11.014 4.74865 12.453C5.37681 13.8921 6.33742 15.1637 7.55406 16.1667C8.7707 17.1697 10.2098 17.8765 11.7568 18.2307C13.3038 18.5849 10.7782 17.5413 12.3275 17.1716C13.8767 16.8019 11.3548 17.2866 12.5776 16.2714C13.8005 15.2562 14.7689 13.975 15.4059 12.5296C13.1491 14.0161 14.36 13.356 11.7127 12.8411Z" fill="url(#paint1_linear_127_9739)"/>
<path fill-rule="evenodd" clip-rule="evenodd" d="M48.5212 12.5204C40.3841 7.54747 30.2395 8.37837 25.3772 9.89795C20.1454 11.533 13.5445 15.4675 9.22154 23.7808C7.6735 26.7578 6.35364 31.2253 6.06037 35.9556C5.76655 40.6949 6.52101 45.3669 8.74922 48.988C10.4858 51.8101 15.2055 56.8938 20.8952 62.5373C26.4795 68.0762 32.6888 73.8581 37.1322 77.9899C38.3456 79.1181 38.4146 81.0164 37.2863 82.2297C36.1581 83.4431 34.2599 83.5121 33.0465 82.3838C28.6102 78.2587 22.3328 72.414 16.6699 66.7972C11.1125 61.2849 5.82448 55.6838 3.63917 52.1324C0.549646 47.1115 -0.268733 41.0781 0.0718732 35.5843C0.413038 30.0815 1.9349 24.7883 3.89826 21.0126C9.08501 11.0383 17.1148 6.1939 23.5874 4.1711C29.4736 2.33157 41.557 1.23254 51.65 7.40081C58.7945 11.7671 65.2802 19.5345 67.2757 28.3154C69.2788 37.1294 67.3451 48.9096 60.7711 56.5416C58.1568 59.5767 51.7586 66.5488 48.8165 69.2351C47.6687 70.2831 45.9105 70.2809 44.7654 69.23C39.5191 64.4158 32.3032 57.2198 26.2908 50.9734C23.2817 47.8472 20.5545 44.9387 18.5112 42.6669C17.4918 41.5335 16.6244 40.5386 15.9717 39.7445C15.6465 39.349 15.3555 38.9802 15.1187 38.6553C14.9227 38.3863 14.6275 37.966 14.4279 37.5193C13.4484 35.3266 13.0355 32.9851 13.4411 30.6322C13.8482 28.27 15.0396 26.1336 16.8746 24.2987C18.5388 22.6346 20.8388 21.6697 23.1019 21.3761C25.3761 21.0811 27.9285 21.4241 30.0957 22.7786C31.5681 23.6989 32.9649 24.9954 34.0999 26.2175C34.545 25.7595 35.0049 25.3044 35.4649 24.8721C36.1631 24.2157 36.902 23.5735 37.6185 23.0443C38.267 22.5654 39.1555 21.9815 40.1176 21.7066C42.4616 21.0372 47.9476 20.0462 51.6587 24.4995C53.0592 26.1801 54.2329 28.0938 54.5765 30.3863C54.9279 32.7305 54.349 35.0307 53.0898 37.3577C52.2868 38.8417 50.6367 40.8743 49.0927 42.6486C47.4802 44.5017 45.7326 46.3544 44.5259 47.561C43.3543 48.7326 41.4548 48.7326 40.2833 47.561C39.1117 46.3895 39.1117 44.49 40.2833 43.3184C41.3931 42.2085 43.0461 40.4572 44.5664 38.71C46.1553 36.884 47.3704 35.3199 47.8129 34.5022C48.6468 32.9612 48.7487 31.9818 48.6428 31.2757C48.5292 30.5179 48.1078 29.6107 47.0494 28.3407C45.849 26.9001 43.831 26.8919 41.7963 27.4672C41.7991 27.4665 41.8006 27.4663 41.8008 27.4666C41.8026 27.4708 41.6073 27.5574 41.1829 27.8709C40.7239 28.2099 40.1738 28.6804 39.5743 29.2439C38.3771 30.3692 37.1446 31.7122 36.2968 32.7295C35.6985 33.4475 34.7998 33.8456 33.8661 33.8063C32.9324 33.7671 32.0703 33.295 31.5344 32.5294C30.7572 31.419 28.7431 29.0087 26.9157 27.8666C26.1568 27.3922 25.0667 27.1715 23.8738 27.3263C22.6697 27.4825 21.6779 27.9807 21.1171 28.5415C20.0261 29.6324 19.5208 30.6827 19.3539 31.6513C19.1897 32.6038 19.3143 33.7039 19.8616 34.9707C19.8815 35.0005 19.9155 35.0499 19.9677 35.1216C20.1091 35.3155 20.3194 35.5851 20.6065 35.9343C21.1782 36.6297 21.9789 37.5501 22.9721 38.6544C24.954 40.8578 27.6307 43.7136 30.6136 46.8125C35.8149 52.2162 41.8875 58.2977 46.7489 62.8796C49.7853 59.8094 54.1631 55.0197 56.2251 52.6258C61.3555 46.6697 63.0794 36.925 61.4249 29.645C59.8505 22.7172 54.544 16.2013 48.5212 12.5204Z" fill="url(#paint2_linear_127_9739)"/>
<path fill-rule="evenodd" clip-rule="evenodd" d="M38.8444 73.2217C39.9489 73.2217 40.8444 74.1171 40.8444 75.2217V84C40.8444 85.1045 39.9489 86 38.8444 86H28.603C27.4985 86 26.603 85.1045 26.603 84C26.603 82.8954 27.4985 82 28.603 82H36.8444V75.2217C36.8444 74.1171 37.7398 73.2217 38.8444 73.2217Z" fill="url(#paint3_linear_127_9739)"/>
<defs>
<linearGradient id="paint0_linear_127_9739" x1="58.0055" y1="18.5008" x2="59.0199" y2="-0.0386608" gradientUnits="userSpaceOnUse">
<stop stop-color="#AA170E"/>
<stop offset="1" stop-color="#D41411"/>
</linearGradient>
<linearGradient id="paint1_linear_127_9739" x1="9.30478" y1="18.5008" x2="10.3192" y2="-0.0386609" gradientUnits="userSpaceOnUse">
<stop stop-color="#AA170E"/>
<stop offset="1" stop-color="#D41411"/>
</linearGradient>
<linearGradient id="paint2_linear_127_9739" x1="31.8994" y1="84.0565" x2="35.2143" y2="2.44846" gradientUnits="userSpaceOnUse">
<stop stop-color="#AA170E"/>
<stop offset="1" stop-color="#D41411"/>
</linearGradient>
<linearGradient id="paint3_linear_127_9739" x1="33.2809" y1="86.1381" x2="33.6806" y2="73.1683" gradientUnits="userSpaceOnUse">
<stop stop-color="#AA170E"/>
<stop offset="1" stop-color="#D41411"/>
</linearGradient>
</defs>
</svg>
