<svg width="385" height="86" viewBox="0 0 385 86" fill="none" xmlns="http://www.w3.org/2000/svg">
<path d="M85.4258 65.9999H113.794V57.7919H94.6418V16.3919H85.4258V65.9999Z" fill="white"/>
<path d="M135.61 58.0799C130.714 58.0799 126.826 54.5519 126.826 49.0799C126.826 43.6799 130.714 40.2959 135.61 40.2959C140.506 40.2959 144.394 43.6799 144.394 49.0799C144.394 54.5519 140.506 58.0799 135.61 58.0799ZM135.61 66.6479C145.114 66.6479 153.106 59.6639 153.106 49.0799C153.106 38.4239 145.114 31.6559 135.61 31.6559C126.106 31.6559 118.114 38.4239 118.114 49.0799C118.114 59.6639 126.106 66.6479 135.61 66.6479Z" fill="white"/>
<path d="M158.823 49.0799C158.823 59.6639 167.319 66.7199 176.967 66.7199C182.727 66.7199 187.839 64.3439 191.007 60.0959L183.951 54.9119C182.295 57.1439 179.775 58.2959 176.967 58.2959C172.071 58.2959 167.535 54.5519 167.535 49.0799C167.535 43.6079 172.071 40.1519 176.967 40.1519C179.775 40.1519 182.295 41.2319 183.951 43.4639L190.935 38.2079C187.767 33.9599 182.655 31.6559 176.967 31.6559C167.319 31.6559 158.823 38.4239 158.823 49.0799Z" fill="white"/>
<path d="M223.385 65.9999H232.169V32.3759H223.385V36.5519C220.865 32.8799 216.041 31.6559 212.945 31.6559C204.089 31.6559 195.809 38.4239 195.809 49.1519C195.809 59.8799 204.089 66.6479 212.945 66.6479C216.185 66.6479 221.297 65.1359 223.385 61.6799V65.9999ZM204.881 49.1519C204.881 43.6799 209.273 40.0799 214.169 40.0799C218.777 40.0799 223.385 43.3919 223.385 49.1519C223.385 54.9119 218.993 58.2239 214.169 58.2239C209.273 58.2239 204.881 54.6239 204.881 49.1519Z" fill="white"/>
<path d="M242.124 65.9999H250.908V14.0879H242.124V65.9999Z" fill="white"/>
<path d="M262.051 65.9999H271.267V45.6959H287.971V37.4879H271.267V24.5999H292.363V16.3919H262.051V65.9999Z" fill="white"/>
<path d="M299.288 65.9999H308.072V14.0879H299.288V65.9999Z" fill="white"/>
<path d="M326.703 32.3759H317.991V65.9999H326.703V32.3759Z" fill="white"/>
<path d="M345.408 54.1199C345.408 45.1919 347.856 39.8639 353.832 39.8639C354.696 39.8639 356.856 39.8639 358.944 40.7999L360.456 32.8799C359.088 32.0879 357.288 31.6559 354.912 31.6559C351.096 31.6559 347.136 34.1759 345.408 40.2959V32.3759H336.624V65.9999H345.408V54.1199Z" fill="white"/>
<path d="M377.745 19.5599H369.033V32.3759H362.913V39.4319H369.033V65.9999H377.745V39.4319H384.873V32.3759H377.745V19.5599Z" fill="white"/>
<circle cx="322.234" cy="21" r="7" fill="#D01511"/>
<path d="M56.3117 12.8411C57.6278 12.5877 54.7405 13.1157 55.854 12.3831C56.9676 11.6504 57.9224 10.707 58.6639 9.60675C59.4053 8.50647 59.9189 7.2709 60.1753 5.9706C60.4317 4.67029 60.4259 3.33075 60.1582 2.02848C60.0101 1.33306 59.7918 0.653493 59.5068 3.96867e-08C60.8354 0.87522 61.9414 2.04307 62.7368 3.41062C63.5323 4.77818 63.9952 6.30769 64.0888 7.87749C64.1823 9.44728 63.9039 11.014 63.2758 12.453C62.6476 13.8921 61.687 15.1637 60.4704 16.1667C59.2537 17.1697 57.8147 17.8765 56.2676 18.2307C54.7206 18.5849 57.2462 17.5413 55.6969 17.1716C54.1477 16.8019 56.6696 17.2866 55.4468 16.2714C54.224 15.2562 53.2555 13.975 52.6185 12.5296C54.8754 14.0161 53.6644 13.356 56.3117 12.8411Z" fill="url(#paint0_linear_127_9729)"/>
<path d="M11.7125 12.8411C10.3964 12.5877 13.2837 13.1157 12.1702 12.3831C11.0566 11.6504 10.1018 10.707 9.36034 9.60675C8.61888 8.50647 8.10528 7.2709 7.84888 5.9706C7.59248 4.67029 7.5983 3.33075 7.86602 2.02848C8.01413 1.33306 8.23236 0.653493 8.5174 0C7.18882 0.87522 6.0828 2.04307 5.28736 3.41062C4.49192 4.77818 4.02901 6.30769 3.93545 7.87749C3.84189 9.44728 4.12027 11.014 4.74843 12.453C5.37659 13.8921 6.33721 15.1637 7.55385 16.1667C8.77048 17.1697 10.2096 17.8765 11.7566 18.2307C13.3036 18.5849 10.778 17.5413 12.3273 17.1716C13.8765 16.8019 11.3546 17.2866 12.5774 16.2714C13.8002 15.2562 14.7687 13.975 15.4057 12.5296C13.1489 14.0161 14.3598 13.356 11.7125 12.8411Z" fill="url(#paint1_linear_127_9729)"/>
<path fill-rule="evenodd" clip-rule="evenodd" d="M48.5212 12.5204C40.3841 7.5474 30.2395 8.3783 25.3772 9.89788C20.1454 11.5329 13.5445 15.4674 9.22154 23.7807C7.6735 26.7577 6.35364 31.2252 6.06037 35.9555C5.76655 40.6948 6.52101 45.3668 8.74922 48.9879C10.4858 51.81 15.2055 56.8937 20.8952 62.5372C26.4795 68.0761 32.6888 73.858 37.1322 77.9898C38.3456 79.1181 38.4146 81.0163 37.2863 82.2297C36.1581 83.443 34.2599 83.512 33.0465 82.3838C28.6102 78.2586 22.3328 72.414 16.6699 66.7971C11.1125 61.2849 5.82448 55.6837 3.63917 52.1323C0.549646 47.1115 -0.268733 41.078 0.0718732 35.5842C0.413038 30.0814 1.9349 24.7882 3.89826 21.0126C9.08501 11.0382 17.1148 6.19383 23.5874 4.17103C29.4736 2.3315 41.557 1.23247 51.65 7.40074C58.7945 11.7671 65.2802 19.5344 67.2757 28.3153C69.2788 37.1293 67.3451 48.9096 60.7711 56.5416C58.1568 59.5767 51.7586 66.5488 48.8165 69.235C47.6687 70.283 45.9105 70.2808 44.7654 69.2299C39.5191 64.4158 32.3032 57.2197 26.2908 50.9733C23.2817 47.8472 20.5545 44.9386 18.5112 42.6668C17.4918 41.5335 16.6244 40.5385 15.9717 39.7445C15.6465 39.3489 15.3555 38.9802 15.1187 38.6552C14.9227 38.3862 14.6275 37.966 14.4279 37.5192C13.4484 35.3266 13.0355 32.985 13.4411 30.6321C13.8482 28.27 15.0396 26.1336 16.8746 24.2986C18.5388 22.6346 20.8388 21.6696 23.1019 21.3761C25.3761 21.0811 27.9285 21.424 30.0957 22.7785C31.5681 23.6988 32.9649 24.9954 34.0999 26.2174C34.545 25.7594 35.0049 25.3043 35.4649 24.872C36.1631 24.2157 36.902 23.5734 37.6185 23.0443C38.267 22.5653 39.1555 21.9814 40.1176 21.7066C42.4616 21.0371 47.9476 20.0461 51.6587 24.4995C53.0592 26.18 54.2329 28.0937 54.5765 30.3862C54.9279 32.7304 54.349 35.0306 53.0898 37.3576C52.2868 38.8417 50.6367 40.8742 49.0927 42.6485C47.4802 44.5017 45.7326 46.3543 44.5259 47.561C43.3543 48.7325 41.4548 48.7325 40.2833 47.561C39.1117 46.3894 39.1117 44.4899 40.2833 43.3183C41.3931 42.2085 43.0461 40.4571 44.5664 38.7099C46.1553 36.8839 47.3704 35.3198 47.8129 34.5021C48.6468 32.9611 48.7487 31.9817 48.6428 31.2756C48.5292 30.5178 48.1078 29.6107 47.0494 28.3406C45.849 26.9 43.831 26.8918 41.7963 27.4671C41.7991 27.4664 41.8008 27.4665 41.8008 27.4665C41.8026 27.4708 41.6073 27.5574 41.1829 27.8708C40.7239 28.2098 40.1738 28.6803 39.5743 29.2438C38.3771 30.3691 37.1446 31.7121 36.2968 32.7295C35.6985 33.4474 34.7998 33.8455 33.8661 33.8063C32.9324 33.767 32.0703 33.2949 31.5344 32.5293C30.7572 31.419 28.7431 29.0086 26.9157 27.8665C26.1568 27.3922 25.0667 27.1715 23.8738 27.3262C22.6697 27.4824 21.6779 27.9806 21.1171 28.5414C20.0261 29.6324 19.5208 30.6826 19.3539 31.6512C19.1897 32.6037 19.3143 33.7038 19.8616 34.9706C19.8815 35.0004 19.9155 35.0498 19.9677 35.1215C20.1091 35.3155 20.3194 35.585 20.6065 35.9342C21.1782 36.6297 21.9789 37.5501 22.9721 38.6543C24.954 40.8578 27.6307 43.7135 30.6136 46.8124C35.8149 52.2161 41.8875 58.2977 46.7489 62.8795C49.7853 59.8093 54.1631 55.0196 56.2251 52.6258C61.3555 46.6696 63.0794 36.9249 61.4249 29.6449C59.8505 22.7171 54.544 16.2012 48.5212 12.5204Z" fill="url(#paint2_linear_127_9729)"/>
<path fill-rule="evenodd" clip-rule="evenodd" d="M38.8445 73.2217C39.9491 73.2217 40.8445 74.1171 40.8445 75.2217V84C40.8445 85.1046 39.9491 86 38.8445 86H28.6032C27.4986 86 26.6032 85.1046 26.6032 84C26.6032 82.8954 27.4986 82 28.6032 82H36.8445V75.2217C36.8445 74.1171 37.7399 73.2217 38.8445 73.2217Z" fill="url(#paint3_linear_127_9729)"/>
<defs>
<linearGradient id="paint0_linear_127_9729" x1="31.8994" y1="86.9295" x2="35.6857" y2="-0.278088" gradientUnits="userSpaceOnUse">
<stop stop-color="#AA170E"/>
<stop offset="1" stop-color="#D41411"/>
</linearGradient>
<linearGradient id="paint1_linear_127_9729" x1="31.8994" y1="86.9295" x2="35.6857" y2="-0.278088" gradientUnits="userSpaceOnUse">
<stop stop-color="#AA170E"/>
<stop offset="1" stop-color="#D41411"/>
</linearGradient>
<linearGradient id="paint2_linear_127_9729" x1="31.8994" y1="86.9295" x2="35.6857" y2="-0.278088" gradientUnits="userSpaceOnUse">
<stop stop-color="#AA170E"/>
<stop offset="1" stop-color="#D41411"/>
</linearGradient>
<linearGradient id="paint3_linear_127_9729" x1="31.8994" y1="86.9295" x2="35.6857" y2="-0.278088" gradientUnits="userSpaceOnUse">
<stop stop-color="#AA170E"/>
<stop offset="1" stop-color="#D41411"/>
</linearGradient>
</defs>
</svg>
