<svg width="237" height="53" viewBox="0 0 237 53" fill="none" xmlns="http://www.w3.org/2000/svg">
<path fill-rule="evenodd" clip-rule="evenodd" d="M14.517 2.5671C12.0935 3.3245 9.31518 4.72466 6.79199 7.0875C6.4002 6.74138 6.05354 6.34681 5.76087 5.91255C5.30454 5.23537 4.98844 4.47493 4.83063 3.67465C4.67283 2.87436 4.67641 2.04993 4.84118 1.24844C4.93234 0.820442 5.06665 0.402197 5.24208 0C4.42439 0.538661 3.74369 1.25742 3.25413 2.09909C2.76457 2.94077 2.47967 3.88211 2.42208 4.84826C2.3645 5.8144 2.53583 6.77865 2.92244 7.66429C3.26662 8.4528 3.77297 9.1596 4.40829 9.7408C3.68704 10.6954 3.01099 11.7559 2.39921 12.9324C1.19085 15.2561 0.254207 18.5138 0.0442348 21.9006C-0.165394 25.2818 0.338284 28.9951 2.23975 32.0852C3.58472 34.2709 6.83927 37.7182 10.2596 41.1108C13.6381 44.4619 17.3721 47.9446 20.0847 50.4675H17.6039C16.9242 50.4675 16.373 51.0187 16.373 51.6984C16.373 52.3783 16.9242 52.9293 17.6039 52.9293H23.9071C24.5869 52.9293 25.138 52.3783 25.138 51.6984V46.2958C25.138 45.616 24.5869 45.0648 23.9071 45.0648C23.2273 45.0648 22.6762 45.616 22.6762 46.2958V47.8347C19.9551 45.3042 16.2234 41.825 12.8601 38.489C9.35834 35.0157 6.45356 31.8868 5.38477 30.15C4.0134 27.9213 3.54907 25.0459 3.7299 22.1291C3.91039 19.2178 4.72271 16.4682 5.67547 14.636C8.33606 9.51953 12.3986 7.09801 15.6186 6.09173C18.6111 5.15649 24.8547 4.64511 29.8627 7.70577C33.5695 9.97115 36.8354 13.9814 37.8044 18.2452C38.8227 22.7257 37.7617 28.7232 34.6042 32.3889C33.3351 33.8622 30.6407 36.8101 28.772 38.6997C25.78 35.8798 22.0425 32.1368 18.8414 28.8111C17.0055 26.9038 15.3581 25.1462 14.1383 23.7901C13.5271 23.1105 13.0343 22.544 12.6824 22.116C12.5057 21.9011 12.3763 21.7352 12.2893 21.6158C12.2571 21.5717 12.2362 21.5413 12.224 21.5229C11.8871 20.7433 11.8104 20.0663 11.9115 19.48C12.0142 18.8838 12.3252 18.2375 12.9967 17.566C13.3418 17.2209 13.9522 16.9142 14.6933 16.8181C15.4275 16.7229 16.0984 16.8587 16.5655 17.1506C17.6902 17.8536 18.9297 19.3371 19.4081 20.0204C19.7379 20.4916 20.2685 20.7822 20.8431 20.8063C21.4178 20.8305 21.9709 20.5855 22.3391 20.1436C22.8609 19.5174 23.6195 18.6909 24.3563 17.9984C24.7253 17.6515 25.0638 17.3619 25.3463 17.1533C25.5542 16.9998 25.6728 16.9347 25.712 16.9132L25.712 16.9131C25.722 16.9076 25.7268 16.905 25.7266 16.9045C25.7265 16.9043 25.7256 16.9044 25.7238 16.9048C26.9761 16.5508 28.2181 16.5559 28.9569 17.4424C29.6083 18.2241 29.8677 18.7824 29.9376 19.2488C30.0027 19.6834 29.94 20.2862 29.4268 21.2346C29.1545 21.7378 28.4066 22.7005 27.4287 23.8243C26.493 24.8996 25.4757 25.9775 24.7927 26.6606C24.0716 27.3816 24.0716 28.5507 24.7927 29.2718C25.5137 29.9928 26.6827 29.9928 27.4038 29.2718C28.1465 28.5291 29.222 27.3889 30.2145 26.2483C31.1647 25.1563 32.1803 23.9054 32.6745 22.992C33.4495 21.5598 33.8058 20.1442 33.5895 18.7014C33.378 17.2905 32.6557 16.1127 31.7937 15.0784C29.5097 12.3375 26.1333 12.9474 24.6907 13.3595C24.0985 13.5286 23.5517 13.888 23.1526 14.1828C22.7116 14.5084 22.2568 14.9037 21.8271 15.3077C21.544 15.5737 21.261 15.8538 20.987 16.1357C20.2885 15.3836 19.4288 14.5856 18.5226 14.0192C17.1888 13.1856 15.6179 12.9745 14.2182 13.1561C12.8254 13.3367 11.4098 13.9306 10.3856 14.9548C9.25623 16.0841 8.52298 17.399 8.27242 18.8528C8.0228 20.3009 8.27692 21.742 8.87976 23.0915C9.0026 23.3665 9.18429 23.6251 9.30492 23.7906C9.45066 23.9907 9.62975 24.2176 9.8299 24.461C10.2316 24.9498 10.7655 25.5621 11.3929 26.2596C12.6504 27.6578 14.3289 29.4479 16.1809 31.372C19.8812 35.2163 24.3223 39.6452 27.5512 42.6081C28.256 43.2548 29.3381 43.2562 30.0445 42.6112C31.8552 40.958 35.793 36.6669 37.402 34.7989C41.448 30.1018 42.6382 22.8515 41.4053 17.4269C40.7623 14.5973 39.3617 11.9388 37.542 9.66217C38.1379 9.0963 38.6147 8.41758 38.9435 7.66429C39.3301 6.77865 39.5014 5.8144 39.4439 4.84826C39.3863 3.88211 39.1014 2.94077 38.6118 2.09909C38.1222 1.25742 37.4415 0.538661 36.6238 0C36.7993 0.402197 36.9336 0.820442 37.0248 1.24844C37.1895 2.04993 37.1931 2.87436 37.0353 3.67465C36.8775 4.47493 36.5614 5.23537 36.1051 5.91255C35.8203 6.33517 35.4843 6.7202 35.1054 7.05956C34.0552 6.09957 32.9356 5.25597 31.7884 4.55485C25.5766 0.758538 18.1397 1.43494 14.517 2.5671ZM202.63 12.9246C202.63 15.304 200.701 17.2328 198.321 17.2328C195.942 17.2328 194.013 15.304 194.013 12.9246C194.013 10.5453 195.942 8.6164 198.321 8.6164C200.701 8.6164 202.63 10.5453 202.63 12.9246ZM154.423 40.6202H149.017V8.67056H154.423V40.6202ZM52.5759 40.6202H70.0354V35.5685H58.248V10.0886H52.5759V40.6202ZM83.4622 35.7458C80.4489 35.7458 78.056 33.5744 78.056 30.2067C78.056 26.8832 80.4489 24.8005 83.4622 24.8005C86.4755 24.8005 88.8684 26.8832 88.8684 30.2067C88.8684 33.5744 86.4755 35.7458 83.4622 35.7458ZM83.4622 41.019C89.3115 41.019 94.2302 36.7207 94.2302 30.2067C94.2302 23.6483 89.3115 19.4829 83.4622 19.4829C77.6129 19.4829 72.6942 23.6483 72.6942 30.2067C72.6942 36.7207 77.6129 41.019 83.4622 41.019ZM108.916 41.0633C102.978 41.0633 97.7488 36.7207 97.7488 30.2067C97.7488 23.6483 102.978 19.4829 108.916 19.4829C112.416 19.4829 115.563 20.9009 117.512 23.5154L113.214 26.7502C112.195 25.3765 110.644 24.7118 108.916 24.7118C105.902 24.7118 103.111 26.8389 103.111 30.2067C103.111 33.5744 105.902 35.8787 108.916 35.8787C110.644 35.8787 112.195 35.1697 113.214 33.796L117.557 36.9865C115.607 39.601 112.461 41.0633 108.916 41.0633ZM137.484 40.6202H142.89V19.926H137.484V22.4962C135.933 20.2362 132.964 19.4829 131.059 19.4829C125.608 19.4829 120.512 23.6483 120.512 30.251C120.512 36.8536 125.608 41.019 131.059 41.019C133.053 41.019 136.199 40.0884 137.484 37.9614V40.6202ZM126.096 30.251C126.096 26.8832 128.799 24.6675 131.812 24.6675C134.648 24.6675 137.484 26.7059 137.484 30.251C137.484 33.796 134.781 35.8344 131.812 35.8344C128.799 35.8344 126.096 33.6187 126.096 30.251ZM161.281 40.6202H166.953V28.1239H177.234V23.0723H166.953V15.1403H179.937V10.0886H161.281V40.6202ZM189.605 40.6202H184.199V8.67056H189.605V40.6202ZM201.072 19.9261H195.71V40.6202H201.072V19.9261ZM217.769 24.5346C214.091 24.5346 212.584 27.8138 212.584 33.3086V40.6202H207.178V19.926H212.584V24.8005C213.647 21.0339 216.085 19.4829 218.433 19.4829C219.896 19.4829 221.003 19.7488 221.845 20.2362L220.915 25.1107C219.63 24.5346 218.3 24.5346 217.769 24.5346ZM232.486 12.0383H227.124V19.9261H223.357V24.2687H227.124V40.6202H232.486V24.2687H236.873V19.9261H232.486V12.0383Z" fill="white"/>
</svg>
